<svg preserveAspectRatio="none" width="100%" height="100%" overflow="visible" style="display: block;" viewBox="0 0 30 40" fill="none" xmlns="http://www.w3.org/2000/svg">
<g id="Container">
<path id="Icon" d="M15 40C13.9 40 12.9583 39.6083 12.175 38.825C11.3917 38.0417 11 37.1 11 36H19C19 37.1 18.6083 38.0417 17.825 38.825C17.0417 39.6083 16.1 40 15 40V40M7 34V30H23V34H7V34M7.5 28C5.2 26.6333 3.375 24.8 2.025 22.5C0.675 20.2 0 17.7 0 15C0 10.8333 1.45833 7.29167 4.375 4.375C7.29167 1.45833 10.8333 0 15 0C19.1667 0 22.7083 1.45833 25.625 4.375C28.5417 7.29167 30 10.8333 30 15C30 17.7 29.325 20.2 27.975 22.5C26.625 24.8 24.8 26.6333 22.5 28H7.5V28" fill="var(--fill-0, #3FFF8B)"/>
</g>
</svg>
