<svg preserveAspectRatio="none" width="100%" height="100%" overflow="visible" style="display: block;" viewBox="0 0 30 18" fill="none" xmlns="http://www.w3.org/2000/svg">
<g id="Container">
<path id="Icon" d="M3 18C2.175 18 1.46875 17.7062 0.88125 17.1187C0.29375 16.5312 0 15.825 0 15V3C0 2.175 0.29375 1.46875 0.88125 0.88125C1.46875 0.29375 2.175 0 3 0H27C27.825 0 28.5312 0.29375 29.1187 0.88125C29.7062 1.46875 30 2.175 30 3V15C30 15.825 29.7062 16.5312 29.1187 17.1187C28.5312 17.7062 27.825 18 27 18H3V18M3 15H27V15V15V3V3V3H3V3V3V15V15V15V15M7.5 13.5H10.5V10.5H13.5V7.5H10.5V4.5H7.5V7.5H4.5V10.5H7.5V13.5V13.5M18.75 13.5C19.375 13.5 19.9062 13.2812 20.3438 12.8438C20.7812 12.4062 21 11.875 21 11.25C21 10.625 20.7812 10.0938 20.3438 9.65625C19.9062 9.21875 19.375 9 18.75 9C18.125 9 17.5938 9.21875 17.1562 9.65625C16.7188 10.0938 16.5 10.625 16.5 11.25C16.5 11.875 16.7188 12.4062 17.1562 12.8438C17.5938 13.2812 18.125 13.5 18.75 13.5V13.5M23.25 9C23.875 9 24.4062 8.78125 24.8438 8.34375C25.2812 7.90625 25.5 7.375 25.5 6.75C25.5 6.125 25.2812 5.59375 24.8438 5.15625C24.4062 4.71875 23.875 4.5 23.25 4.5C22.625 4.5 22.0938 4.71875 21.6562 5.15625C21.2188 5.59375 21 6.125 21 6.75C21 7.375 21.2188 7.90625 21.6562 8.34375C22.0938 8.78125 22.625 9 23.25 9V9M3 15V15V15V3V3V3V3V3V3V15V15V15V15V15" fill="var(--fill-0, #453900)"/>
</g>
</svg>
