<svg preserveAspectRatio="none" width="100%" height="100%" overflow="visible" style="display: block;" viewBox="0 0 30.15 30" fill="none" xmlns="http://www.w3.org/2000/svg">
<g id="Container">
<path id="Icon" d="M10.95 30L10.35 25.2C10.025 25.075 9.71875 24.925 9.43125 24.75C9.14375 24.575 8.8625 24.3875 8.5875 24.1875L4.125 26.0625L0 18.9375L3.8625 16.0125C3.8375 15.8375 3.825 15.6688 3.825 15.5063C3.825 15.3438 3.825 15.175 3.825 15C3.825 14.825 3.825 14.6562 3.825 14.4937C3.825 14.3312 3.8375 14.1625 3.8625 13.9875L0 11.0625L4.125 3.9375L8.5875 5.8125C8.8625 5.6125 9.15 5.425 9.45 5.25C9.75 5.075 10.05 4.925 10.35 4.8L10.95 0H19.2L19.8 4.8C20.125 4.925 20.4313 5.075 20.7188 5.25C21.0062 5.425 21.2875 5.6125 21.5625 5.8125L26.025 3.9375L30.15 11.0625L26.2875 13.9875C26.3125 14.1625 26.325 14.3312 26.325 14.4937C26.325 14.6562 26.325 14.825 26.325 15C26.325 15.175 26.325 15.3438 26.325 15.5063C26.325 15.6688 26.3 15.8375 26.25 16.0125L30.1125 18.9375L25.9875 26.0625L21.5625 24.1875C21.2875 24.3875 21 24.575 20.7 24.75C20.4 24.925 20.1 25.075 19.8 25.2L19.2 30H10.95V30M13.575 27H16.5375L17.0625 23.025C17.8375 22.825 18.5562 22.5312 19.2188 22.1437C19.8813 21.7562 20.4875 21.2875 21.0375 20.7375L24.75 22.275L26.2125 19.725L22.9875 17.2875C23.1125 16.9375 23.2 16.5687 23.25 16.1812C23.3 15.7937 23.325 15.4 23.325 15C23.325 14.6 23.3 14.2063 23.25 13.8188C23.2 13.4313 23.1125 13.0625 22.9875 12.7125L26.2125 10.275L24.75 7.725L21.0375 9.3C20.4875 8.725 19.8813 8.24375 19.2188 7.85625C18.5562 7.46875 17.8375 7.175 17.0625 6.975L16.575 3H13.6125L13.0875 6.975C12.3125 7.175 11.5937 7.46875 10.9312 7.85625C10.2687 8.24375 9.6625 8.7125 9.1125 9.2625L5.4 7.725L3.9375 10.275L7.1625 12.675C7.0375 13.05 6.95 13.425 6.9 13.8C6.85 14.175 6.825 14.575 6.825 15C6.825 15.4 6.85 15.7875 6.9 16.1625C6.95 16.5375 7.0375 16.9125 7.1625 17.2875L3.9375 19.725L5.4 22.275L9.1125 20.7C9.6625 21.275 10.2687 21.7562 10.9312 22.1437C11.5937 22.5312 12.3125 22.825 13.0875 23.025L13.575 27V27M15.15 20.25C16.6 20.25 17.8375 19.7375 18.8625 18.7125C19.8875 17.6875 20.4 16.45 20.4 15C20.4 13.55 19.8875 12.3125 18.8625 11.2875C17.8375 10.2625 16.6 9.75 15.15 9.75C13.675 9.75 12.4312 10.2625 11.4187 11.2875C10.4062 12.3125 9.9 13.55 9.9 15C9.9 16.45 10.4062 17.6875 11.4187 18.7125C12.4312 19.7375 13.675 20.25 15.15 20.25V20.25M15.075 15V15V15V15V15V15V15V15V15V15V15V15V15V15V15V15V15V15V15V15V15V15V15V15V15V15V15V15V15V15V15V15V15V15V15V15" fill="var(--fill-0, #F7F0AB)" fill-opacity="0.4"/>
</g>
</svg>
